<svg width="42" height="42" viewBox="0 0 42 42" fill="none" xmlns="http://www.w3.org/2000/svg">
<g clip-path="url(#clip0_7456_30)">
<path d="M1.03345 18.504L18.504 1.03344C19.8819 -0.34448 22.1167 -0.34448 23.4946 1.03344C24.8725 2.41137 24.8725 4.64615 23.4946 6.02407L8.52101 20.9976L23.4946 35.9711C24.8725 37.349 24.8725 39.5838 23.4946 40.9617C22.1167 42.3396 19.8819 42.3396 18.504 40.9617L1.03345 23.4912C-0.344482 22.1167 -0.344482 19.882 1.03345 18.504ZM22.0398 17.4461L35.9099 2.82758C37.3036 1.36051 39.561 1.36051 40.9547 2.82758C42.3484 4.29465 42.3484 6.67457 40.9547 8.14343L29.6061 20.104L40.9547 32.0647C42.3484 33.5318 42.3484 35.9134 40.9547 37.3805C39.561 38.8476 37.3036 38.8476 35.9099 37.3805L22.0398 22.762C20.646 21.2949 20.646 18.915 22.0398 17.4461Z" fill="#76ACD5"/>
</g>
<defs>
<clipPath id="clip0_7456_30">
<rect width="42" height="42" fill="white"/>
</clipPath>
</defs>
</svg>
