<svg width="512" height="512" viewBox="0 0 512 512" fill="none" xmlns="http://www.w3.org/2000/svg">
<path d="M256 96C144.341 96 47.559 161.021 0 256C47.559 350.979 144.341 416 256 416C367.656 416 464.439 350.979 512 256C464.441 161.021 367.656 96 256 96ZM382.225 180.852C412.307 200.039 437.797 225.739 456.944 256C437.798 286.261 412.305 311.961 382.225 331.148C344.428 355.257 300.779 368 256 368C211.22 368 167.572 355.257 129.775 331.148C99.695 311.96 74.205 286.26 55.058 256C74.204 225.738 99.695 200.038 129.775 180.852C131.734 179.602 133.713 178.391 135.704 177.202C130.725 190.866 128 205.613 128 221C128 291.691 185.308 349 256 349C326.691 349 384 291.691 384 221C384 205.613 381.275 190.866 376.297 177.201C378.285 178.39 380.266 179.602 382.225 180.852ZM256 205C256 231.51 234.51 253 208 253C181.49 253 160 231.51 160 205C160 178.49 181.49 157 208 157C234.51 157 256 178.49 256 205Z" fill="white"/>
</svg>
