<svg width="42" height="42" viewBox="0 0 42 42" fill="none" xmlns="http://www.w3.org/2000/svg">
<path d="M40.9666 18.5065L23.496 1.03589C22.1181 -0.34204 19.8833 -0.34204 18.5054 1.03589C17.1275 2.41381 17.1275 4.64859 18.5054 6.02652L33.479 21.0001L18.5054 35.9735C17.1275 37.3515 17.1275 39.5862 18.5054 40.9642C19.8833 42.3421 22.1181 42.3421 23.496 40.9642L40.9666 23.4936C42.3445 22.1191 42.3445 19.8844 40.9666 18.5065ZM19.9602 17.4486L6.09013 2.83002C4.69642 1.36295 2.43899 1.36295 1.04528 2.83002C-0.348427 4.29709 -0.348427 6.67701 1.04528 8.14587L12.3939 20.1065L1.04528 32.0671C-0.348427 33.5342 -0.348427 35.9158 1.04528 37.383C2.43899 38.8501 4.69642 38.8501 6.09013 37.383L19.9602 22.7644C21.354 21.2973 21.354 18.9174 19.9602 17.4486Z" fill="white"/>
</svg>
